<?xml version="1.0" encoding="utf-8"?>
<!-- Generator: Adobe Illustrator 19.2.1, SVG Export Plug-In . SVG Version: 6.00 Build 0)  -->
<svg version="1.1" id="layer" xmlns="http://www.w3.org/2000/svg" xmlns:xlink="http://www.w3.org/1999/xlink" x="0px" y="0px"
	 viewBox="0 0 652 652" style="enable-background:new 0 0 652 652;" xml:space="preserve">
<style type="text/css">
	.st0{fill:#231F20;}
</style>
<path class="st0" d="M421.5,288.9c-1.3,1.2-1.3,3.3,0,4.5c1.3,1.2,3.3,1.3,4.5,0c7.9-7.8,18.3-12.1,29.3-12.1
	c10.6,0,20.7,4.3,28.3,12c1.2,1.3,3.2,1.3,4.5,0c1.3-1.2,1.3-3.2,0-4.5c-8.8-9-20.4-13.9-32.8-13.9
	C442.5,275,430.5,279.9,421.5,288.9"/>
<path class="st0" d="M408.1,275.4c-1.3,1.2-1.3,3.2,0,4.5c1.2,1.3,3.2,1.3,4.5,0c11.5-11.3,26.6-17.5,42.7-17.5
	c15.9,0,30.8,6.4,41.9,18.2c1.2,1.3,3.2,1.3,4.5,0.1c1.3-1.2,1.3-3.2,0.1-4.5c-12.4-13-28.9-20.1-46.6-20.1
	C437.6,256.1,420.8,263,408.1,275.4"/>
<path class="st0" d="M392.9,260.3c-1.3,1.2-1.3,3.2,0,4.5c1.2,1.2,3.3,1.3,4.5,0c15.6-15.3,36.2-23.8,57.9-23.8
	c21.6,0,41.9,8.8,57,24.7c1.2,1.3,3.2,1.3,4.5,0.1c1.3-1.2,1.3-3.2,0.1-4.5c-16.4-17.2-38.3-26.7-61.7-26.7
	C431.8,234.8,409.7,243.8,392.9,260.3"/>
<path class="st0" d="M317.7,384.3L294,330.5c-1.2-3-0.3-5.1,2.6-6.2c3.1-0.8,5.4,0.3,6.7,3.2l20.3,44.2l19.1-44.1
	c1.5-3.2,3.9-4.2,7.2-3.2c3.4,1.2,4.5,3.2,3.4,6.3l-32.8,70.9c-2.8,5.7-6.8,8.6-12,8.6h-10c-3.3,0-5-1.4-5-4.3c0-2.9,1.7-4.3,5-4.3
	h5c3.5,0,6.1-1.2,7.9-3.6"/>
<path class="st0" d="M401.7,332.7h-35.5c-3.4,0-5.1-1.4-5.1-4.3c0-2.9,1.7-4.3,5.1-4.3h48.9c2.7,0,4,1,4,3c0,0.9-0.6,1.9-1.6,3
	l-41.6,45.6h39.7c3.4,0,5.1,1.4,5.1,4.3s-1.7,4.3-5.1,4.3h-52.5c-2.7,0-4.1-1-4.1-3c0-1,0.5-2,1.6-3"/>
<path class="st0" d="M134.5,332.7c3.8,0,6.9,3.1,6.9,6.9v29.3c0,3.8-3.1,6.9-6.9,6.9h-29.3c-3.8,0-6.9-3.1-6.9-6.9v-29.3
	c0-3.8,3.1-6.9,6.9-6.9H134.5 M134.5,324.1h-29.3c-8.6,0-15.5,6.9-15.5,15.5v29.3c0,8.6,6.9,15.5,15.5,15.5h29.3
	c8.6,0,15.5-6.9,15.5-15.5v-29.3C150,331,143.1,324.1,134.5,324.1"/>
<g>
	<path class="st0" d="M605.1,375.9h-29.3c-3.8,0-6.9-3.1-6.9-6.9v-10.3h51.7v-18.9c0-8.6-6.9-15.5-15.5-15.5h-29.3
		c-8.6,0-15.5,6.9-15.5,15.5V369c0,8.6,6.9,15.5,15.5,15.5h29.3c7.2,0,13.2-4.9,15-11.5h-9.4C609.4,374.7,607.4,375.9,605.1,375.9
		 M569,339.7c0-3.8,3.1-6.9,6.9-6.9h29.3c3.8,0,6.9,3.1,6.9,6.9V350H569V339.7z"/>
</g>
<path class="st0" d="M272.6,324.1h-29.3c-2.7,0-5.2,0.7-7.4,1.9v-26.3c0-2.3-1.8-4.1-4.1-4.1s-4.1,1.8-4.1,4.1V369
	c0,0.5,0.1,1,0.3,1.5c0.8,7.8,7.4,13.9,15.4,13.9h29.3c8.6,0,15.5-6.9,15.5-15.5v-29.3C288.1,331,281.1,324.1,272.6,324.1
	 M279.5,368.8c0,3.8-3.1,6.9-6.9,6.9h-29.3c-3.8,0-6.9-3.1-6.9-6.9v-29.3c0-3.8,3.1-6.9,6.9-6.9h29.3c3.8,0,6.9,3.1,6.9,6.9V368.8z"
	/>
<path class="st0" d="M203.3,324.1H174c-2.7,0-5.2,0.7-7.4,1.9v-26.3c0-2.3-1.8-4.1-4.1-4.1c-2.3,0-4.1,1.8-4.1,4.1V369
	c0,0.5,0.1,1,0.3,1.5c0.8,7.8,7.4,13.9,15.4,13.9h29.3c8.6,0,15.5-6.9,15.5-15.5v-29.3C218.8,331,211.9,324.1,203.3,324.1
	 M210.2,368.8c0,3.8-3.1,6.9-6.9,6.9H174c-3.8,0-6.9-3.1-6.9-6.9v-29.3c0-3.8,3.1-6.9,6.9-6.9h29.3c3.8,0,6.9,3.1,6.9,6.9V368.8z"/>
<path class="st0" d="M501,357.7c0,0,0-0.1,0-0.1v-17.1c0-3.8,3.1-6.9,6.9-6.9h29.3c3.8,0,6.9,3.1,6.9,6.9v29.3c0,0,0,0,0,0.1v14.7
	h8.6c0-4.1,0-8.9,0-14.7v-29.3c0-8.6-6.9-15.5-15.5-15.5h-29.3c-8.6,0-15.5,6.9-15.5,15.5v44h8.6"/>
<g>
	<path class="st0" d="M80.9,369.8v-29.3c0-8.6-6.9-15.5-15.5-15.5H36.1c-2.6,0-5.1,0.7-7.2,1.8v-27c0-2.3-1.9-4.1-4.1-4.1
		c-2.3,0-4.1,1.8-4.1,4.1v40.7c0,0,0,0.1,0,0.1v44h8.6v-26.8c0,0,0-0.1,0-0.1v-17.1c0-3.8,3.1-6.9,6.9-6.9h29.3
		c3.8,0,6.9,3.1,6.9,6.9v29.3c0,0,0,0,0,0.1v14.7h8.6C80.9,380.5,80.9,375.6,80.9,369.8"/>
</g>
<path class="st0" d="M469.2,324.1h-10.5v-24.7c0-2.4-1.9-4.3-4.3-4.3s-4.3,1.9-4.3,4.3v24.7H440c-8.6,0-15.5,6.9-15.5,15.5v29.3
	c0,8.6,6.9,15.5,15.5,15.5h29.3c8.6,0,15.5-6.9,15.5-15.5v-29.3C484.7,331,477.8,324.1,469.2,324.1 M476.1,368.8
	c0,3.8-3.1,6.9-6.9,6.9H440c-3.8,0-6.9-3.1-6.9-6.9v-29.3c0-3.8,3.1-6.9,6.9-6.9h29.3c3.8,0,6.9,3.1,6.9,6.9V368.8z"/>
<path class="st0" d="M448.3,341.3h-7.4c-1.1,0-1.9,0.9-1.9,1.9v7.4c0,1.1,0.9,1.9,1.9,1.9h7.4c1.1,0,1.9-0.9,1.9-1.9v-7.4
	C450.2,342.2,449.4,341.3,448.3,341.3"/>
<path class="st0" d="M467.3,341.3H460c-1.1,0-1.9,0.9-1.9,1.9v7.4c0,1.1,0.9,1.9,1.9,1.9h7.4c1.1,0,1.9-0.9,1.9-1.9v-7.4
	C469.3,342.2,468.4,341.3,467.3,341.3"/>
</svg>
